<?xml version="1.0" encoding="UTF-8" standalone="no"?>
<!DOCTYPE svg PUBLIC "-//W3C//DTD SVG 1.1//EN"
 "http://www.w3.org/Graphics/SVG/1.1/DTD/svg11.dtd">
<!-- Generated by graphviz version 2.43.0 (0)
 -->
<!-- Title: pastafarianism Pages: 1 -->
<svg width="169pt" height="188pt"
 viewBox="0.00 0.00 169.21 188.00" xmlns="http://www.w3.org/2000/svg" xmlns:xlink="http://www.w3.org/1999/xlink">
<g id="graph0" class="graph" transform="scale(1 1) rotate(0) translate(4 184)">
<title>pastafarianism</title>
<polygon fill="white" stroke="transparent" points="-4,4 -4,-184 165.21,-184 165.21,4 -4,4"/>
<!-- Life -->
<g id="node1" class="node">
<title>Life</title>
<polygon fill="orange" stroke="black" points="98.75,-180 44.75,-180 44.75,-144 98.75,-144 98.75,-180"/>
<text text-anchor="middle" x="71.75" y="-159.8" font-family="Times,serif" font-size="9.00">Ⓜ Life</text>
</g>
<!-- Inverter -->
<g id="node2" class="node">
<title>Inverter</title>
<ellipse fill="ghostwhite" stroke="black" cx="31.75" cy="-90" rx="31.51" ry="18"/>
<text text-anchor="middle" x="31.75" y="-87.8" font-family="Times,serif" font-size="9.00">Inverter</text>
</g>
<!-- Life&#45;&gt;Inverter -->
<g id="edge1" class="edge">
<title>Life&#45;&gt;Inverter</title>
<path fill="none" stroke="black" d="M61.87,-143.7C57.2,-135.52 51.53,-125.6 46.37,-116.58"/>
<polygon fill="black" stroke="black" points="49.25,-114.57 41.25,-107.62 43.18,-118.04 49.25,-114.57"/>
</g>
<!-- Timeout -->
<g id="node4" class="node">
<title>Timeout</title>
<ellipse fill="ghostwhite" stroke="black" cx="114.75" cy="-90" rx="31.35" ry="18"/>
<text text-anchor="middle" x="114.75" y="-87.8" font-family="Times,serif" font-size="9.00">Timeout</text>
</g>
<!-- Life&#45;&gt;Timeout -->
<g id="edge3" class="edge">
<title>Life&#45;&gt;Timeout</title>
<path fill="none" stroke="black" d="M82.38,-143.7C87.53,-135.32 93.81,-125.1 99.46,-115.9"/>
<polygon fill="black" stroke="black" points="102.58,-117.5 104.84,-107.14 96.62,-113.83 102.58,-117.5"/>
</g>
<!-- Busy? -->
<g id="node3" class="node">
<title>Busy?</title>
<ellipse fill="gray" stroke="black" cx="27.75" cy="-18" rx="27" ry="18"/>
<text text-anchor="middle" x="27.75" y="-15.8" font-family="Times,serif" font-size="9.00">Busy?</text>
</g>
<!-- Inverter&#45;&gt;Busy? -->
<g id="edge2" class="edge">
<title>Inverter&#45;&gt;Busy?</title>
<path fill="none" stroke="black" d="M30.77,-71.7C30.32,-63.98 29.79,-54.71 29.3,-46.11"/>
<polygon fill="black" stroke="black" points="32.8,-45.89 28.73,-36.1 25.81,-46.29 32.8,-45.89"/>
</g>
<!-- Have a Beer! -->
<g id="node5" class="node">
<title>Have a Beer!</title>
<ellipse fill="gray" stroke="black" cx="116.75" cy="-18" rx="44.41" ry="18"/>
<text text-anchor="middle" x="116.75" y="-15.8" font-family="Times,serif" font-size="9.00">Have a Beer!</text>
</g>
<!-- Timeout&#45;&gt;Have a Beer! -->
<g id="edge4" class="edge">
<title>Timeout&#45;&gt;Have a Beer!</title>
<path fill="none" stroke="black" d="M115.25,-71.7C115.47,-63.98 115.73,-54.71 115.98,-46.11"/>
<polygon fill="black" stroke="black" points="119.48,-46.2 116.27,-36.1 112.48,-46 119.48,-46.2"/>
</g>
</g>
</svg>
